<svg width="525" height="360" viewBox="0 0 525 360" fill="none" xmlns="http://www.w3.org/2000/svg">
<path d="M493.294 0.946529C485.529 1.19132 478.158 4.45691 472.758 10.0454L192.758 290.045L49.2651 179.212H49.2703C42.9943 174.306 35.0196 172.108 27.1143 173.108C19.2132 174.108 12.0357 178.223 7.18232 184.54C2.32899 190.858 0.197918 198.847 1.26565 206.743C2.33336 214.639 6.51045 221.779 12.8698 226.576L177.136 353.508V353.513C182.892 357.961 190.079 360.154 197.339 359.68C204.6 359.211 211.438 356.102 216.568 350.946L515.235 52.2791C521.079 46.6384 524.371 38.8631 524.36 30.7431C524.345 22.6233 521.027 14.8631 515.168 9.23773C509.308 3.61799 501.418 0.6232 493.304 0.946L493.294 0.946529Z" fill="black"/>
</svg>
